<?xml version="1.0" standalone="no"?>
<!DOCTYPE svg PUBLIC "-//W3C//DTD SVG 20010904//EN"
 "http://www.w3.org/TR/2001/REC-SVG-20010904/DTD/svg10.dtd">
<svg version="1.0" xmlns="http://www.w3.org/2000/svg"
 width="300.000000pt" height="300.000000pt" viewBox="0 0 300.000000 300.000000"
 preserveAspectRatio="xMidYMid meet">
<metadata>
Created by potrace 1.11, written by Peter Selinger 2001-2013
</metadata>
<g transform="translate(0.000000,300.000000) scale(0.100000,-0.100000)"
fill="#000000" stroke="none">
<path d="M1307 2724 c-101 -15 -268 -69 -359 -115 -234 -118 -454 -346 -563
-582 -217 -474 -120 -1015 249 -1383 152 -151 284 -234 481 -300 361 -120 754
-66 1075 149 104 70 265 233 334 340 274 420 274 934 0 1354 -69 107 -230 270
-334 340 -261 174 -577 245 -883 197z m-241 -748 c29 -14 64 -40 83 -65 l33
-42 45 41 c121 112 265 120 364 21 74 -73 81 -107 87 -423 l4 -268 -75 0 -75
0 -4 263 c-3 279 -4 284 -56 339 -52 56 -142 46 -218 -24 l-44 -41 0 -268 0
-269 -74 0 -75 0 -3 273 c-3 305 -8 325 -73 353 -67 28 -132 13 -198 -46 l-37
-32 0 -274 0 -274 -75 0 -75 0 0 370 0 370 74 0 75 0 3 -41 3 -41 40 32 c91
74 179 89 271 46z m1404 -56 l0 -60 -77 0 -76 0 20 -22 c35 -39 53 -85 53
-138 0 -61 -17 -104 -60 -154 -44 -49 -76 -65 -183 -87 -86 -17 -127 -38 -127
-65 0 -28 55 -53 185 -84 108 -25 144 -38 177 -63 55 -42 78 -89 78 -155 0
-98 -59 -169 -173 -209 -40 -14 -80 -18 -177 -17 -137 1 -178 11 -254 63 -118
81 -114 252 8 321 28 17 59 30 70 30 15 0 12 7 -18 40 -20 22 -36 47 -36 56 0
32 31 72 70 92 l40 20 -27 17 c-100 63 -140 151 -122 266 11 68 47 121 106
155 76 45 122 53 331 53 l192 1 0 -60z"/>
<path d="M2055 1836 c-48 -21 -77 -60 -82 -109 -7 -62 17 -103 74 -129 81 -36
159 -10 197 66 54 109 -72 224 -189 172z"/>
<path d="M1993 1190 c-42 -13 -83 -64 -83 -102 0 -43 44 -83 108 -97 192 -41
360 43 282 141 -11 14 -39 33 -62 43 -50 20 -198 29 -245 15z"/>
</g>
</svg>
